# xmcd CD database file
#
# Track frame offsets:
#	150
#	20070
#	42835
#
# Disc length: 922 seconds
#
# Revision: 0
# Processed by: cddbd v1.5.1PL0 Copyright (c) Steve Scherf et al.
# Submitted via: CDex 1.51
#
DISCID=1e039803
DTITLE=SOFTBALLET - BODY +o BODY
DYEAR=1900
DGENRE=Electronic
TTITLE0=BODY TO BODY
TTITLE1=KO・KA・GE・NI
TTITLE2=BODY TO BODY [CLUB MIX]
EXTD=
EXTT0=
EXTT1=
EXTT2=
PLAYORDER=
